<svg xmlns="http://www.w3.org/2000/svg" width="880" height="540" viewBox="0 0 880 540"><defs><pattern id="dotgrid" width="22" height="22" patternUnits="userSpaceOnUse"><circle cx="1" cy="1" r="1" fill="#1a1611" opacity=".07"/></pattern><filter id="noise" width="100%" height="100%" x="0" y="0"><feTurbulence baseFrequency=".95" numOctaves="2" stitchTiles="stitch" type="fractalNoise"/><feColorMatrix values="0 0 0 0 0 0 0 0 0 0 0 0 0 0 0 0 0 0 0.05 0"/></filter></defs><rect width="880" height="540" fill="#f4ede0"/><rect width="880" height="540" fill="url(#dotgrid)"/><rect width="880" height="540" filter="url(#noise)" opacity=".6"/><g><text x="0" y="0" fill="#1a1611" font-family="Space Grotesk, Inter, system-ui, sans-serif" font-size="48" font-weight="800" letter-spacing="-1.5" transform="translate(60 60)">on claude</text><text x="0" y="26" fill="#5c5147" font-family="JetBrains Mono, ui-monospace, monospace" font-size="13" transform="translate(60 60)">16 active days / all-time ending 2026-05-22</text></g><g transform="translate(660 40) rotate(3)"><rect width="166.8" height="26" x="0" y="0" fill="#f2d76e" stroke="#1a1611" stroke-width="1.5"/><rect width="166.8" height="26" x="2" y="2" fill="none" stroke="#1a1611" stroke-width="1.5" opacity=".18"/><text x="83.4" y="18" fill="#1a1611" font-family="JetBrains Mono, ui-monospace, monospace" font-size="14" font-weight="700" letter-spacing="1.5" text-anchor="middle">CLAUDE-RPC · V0.4</text></g><g transform="translate(60 130)"><rect width="380" height="170" x="3" y="4" fill="#1a1611"/><rect width="380" height="170" x="0" y="0" fill="#f4ede0" stroke="#1a1611" stroke-width="2"/><text x="22" y="36" fill="#5c5147" font-family="JetBrains Mono, ui-monospace, monospace" font-size="12" font-weight="700" letter-spacing="2.5">TIME WITH CLAUDE</text><text x="22" y="118" fill="#c2491e" font-family="Space Grotesk, Inter, system-ui, sans-serif" font-size="82" font-weight="800" letter-spacing="-3">40h</text><text x="22" y="148" fill="#1a1611" font-family="JetBrains Mono, ui-monospace, monospace" font-size="13">16 days · 86 sessions · streak 4 (best 12)</text></g><g transform="translate(470 130) rotate(-0.8)"><rect width="170" height="82" x="2" y="3" fill="#1a1611"/><rect width="170" height="82" x="0" y="0" fill="#f4ede0" stroke="#1a1611" stroke-width="1.5"/><text x="18" y="28" fill="#5c5147" font-family="JetBrains Mono, ui-monospace, monospace" font-size="11" font-weight="700" letter-spacing="2">PROMPTS</text><text x="18" y="58" fill="#1a1611" font-family="Space Grotesk, Inter, system-ui, sans-serif" font-size="34" font-weight="800">447</text></g><g transform="translate(650 130) rotate(0.6)"><rect width="170" height="82" x="2" y="3" fill="#1a1611"/><rect width="170" height="82" x="0" y="0" fill="#f4ede0" stroke="#1a1611" stroke-width="1.5"/><text x="18" y="28" fill="#5c5147" font-family="JetBrains Mono, ui-monospace, monospace" font-size="11" font-weight="700" letter-spacing="2">TOKENS</text><text x="18" y="58" fill="#1a1611" font-family="Space Grotesk, Inter, system-ui, sans-serif" font-size="34" font-weight="800">9.65B</text></g><g transform="translate(470 218) rotate(0.6)"><rect width="170" height="82" x="2" y="3" fill="#1a1611"/><rect width="170" height="82" x="0" y="0" fill="#f4ede0" stroke="#1a1611" stroke-width="1.5"/><text x="18" y="28" fill="#5c5147" font-family="JetBrains Mono, ui-monospace, monospace" font-size="11" font-weight="700" letter-spacing="2">LINES</text><text x="18" y="58" fill="#4a9462" font-family="Space Grotesk, Inter, system-ui, sans-serif" font-size="34" font-weight="800">+105.0k</text><text x="18" y="74" fill="#5c5147" font-family="JetBrains Mono, ui-monospace, monospace" font-size="11">118.8k added</text></g><g transform="translate(650 218) rotate(-0.5)"><rect width="170" height="82" x="2" y="3" fill="#1a1611"/><rect width="170" height="82" x="0" y="0" fill="#f4ede0" stroke="#1a1611" stroke-width="1.5"/><text x="18" y="28" fill="#5c5147" font-family="JetBrains Mono, ui-monospace, monospace" font-size="11" font-weight="700" letter-spacing="2">COST</text><text x="18" y="58" fill="#5865f2" font-family="Space Grotesk, Inter, system-ui, sans-serif" font-size="34" font-weight="800">$115.9k</text><text x="18" y="74" fill="#5c5147" font-family="JetBrains Mono, ui-monospace, monospace" font-size="11">≈ $7.24k/day</text></g><g><text x="60" y="328" fill="#5c5147" font-family="JetBrains Mono, ui-monospace, monospace" font-size="11" font-weight="700" letter-spacing="2.5">DAILY ACTIVITY</text><rect width="760" height="62" x="60" y="335" fill="#ebe2d2" stroke="#1a1611" stroke-width="1.5"/><g><rect width="24.431" height=".184" x="64" y="394.816" fill="#c2491e" opacity=".451"/><rect width="24.431" height="2.455" x="89.931" y="392.545" fill="#c2491e" opacity=".469"/><rect width="24.431" height="0" x="115.862" y="395" fill="#c2491e" opacity=".45"/><rect width="24.431" height="0" x="141.793" y="395" fill="#c2491e" opacity=".45"/><rect width="24.431" height="0" x="167.724" y="395" fill="#c2491e" opacity=".45"/><rect width="24.431" height="0" x="193.655" y="395" fill="#c2491e" opacity=".45"/><rect width="24.431" height="0" x="219.586" y="395" fill="#c2491e" opacity=".45"/><rect width="24.431" height="0" x="245.517" y="395" fill="#c2491e" opacity=".45"/><rect width="24.431" height="0" x="271.448" y="395" fill="#c2491e" opacity=".45"/><rect width="24.431" height="0" x="297.379" y="395" fill="#c2491e" opacity=".45"/><rect width="24.431" height="0" x="323.31" y="395" fill="#c2491e" opacity=".45"/><rect width="24.431" height="0" x="349.241" y="395" fill="#c2491e" opacity=".45"/><rect width="24.431" height="0" x="375.172" y="395" fill="#c2491e" opacity=".45"/><rect width="24.431" height="34.682" x="401.103" y="360.318" fill="#c2491e" opacity=".719"/><rect width="24.431" height="0" x="427.034" y="395" fill="#c2491e" opacity=".45"/><rect width="24.431" height="9.432" x="452.966" y="385.568" fill="#c2491e" opacity=".523"/><rect width="24.431" height="17.131" x="478.897" y="377.869" fill="#c2491e" opacity=".583"/><rect width="24.431" height="31.778" x="504.828" y="363.222" fill="#c2491e" opacity=".697"/><rect width="24.431" height="5.225" x="530.759" y="389.775" fill="#c2491e" opacity=".491"/><rect width="24.431" height="13.656" x="556.69" y="381.344" fill="#c2491e" opacity=".556"/><rect width="24.431" height="17.975" x="582.621" y="377.025" fill="#c2491e" opacity=".589"/><rect width="24.431" height="0" x="608.552" y="395" fill="#c2491e" opacity=".45"/><rect width="24.431" height="23.893" x="634.483" y="371.107" fill="#c2491e" opacity=".635"/><rect width="24.431" height="21.981" x="660.414" y="373.019" fill="#c2491e" opacity=".621"/><rect width="24.431" height="30.282" x="686.345" y="364.718" fill="#c2491e" opacity=".685"/><rect width="24.431" height="54.44" x="712.276" y="340.56" fill="#c2491e" opacity=".872"/><rect width="24.431" height="23.175" x="738.207" y="371.825" fill="#c2491e" opacity=".63"/><rect width="24.431" height="23.094" x="764.138" y="371.906" fill="#c2491e" opacity=".629"/><rect width="24.431" height="58" x="790.069" y="337" fill="#c2491e" opacity=".9"/></g></g><g><text x="0" y="0" fill="#5c5147" font-family="JetBrains Mono, ui-monospace, monospace" font-size="11" font-weight="700" letter-spacing="2.5" transform="translate(60 420)">HIGHLIGHTS</text><g><text fill="#1a1611" font-family="JetBrains Mono, ui-monospace, monospace" font-size="13" transform="translate(60 420) translate(0 16)"><tspan x="0" fill="#5c5147" dy="14">top language</tspan><tspan dx="10" font-weight="700">Python</tspan><tspan fill="#8a7c6d" dx="6">(526 edits)</tspan> <tspan x="0" fill="#5c5147" dy="20">hotspot file</tspan><tspan dx="14" font-weight="700">task_detail.html</tspan><tspan fill="#8a7c6d" dx="6">(× 54)</tspan> <tspan x="0" fill="#5c5147" dy="20">peak day</tspan><tspan dx="36" font-weight="700">Tue</tspan><tspan fill="#8a7c6d" dx="6">(9.6h)</tspan> <tspan x="0" fill="#5c5147" dy="20">peak hour</tspan><tspan dx="30" font-weight="700">21:00</tspan></text></g></g><g text-anchor="end"><text fill="#8a7c6d" font-family="JetBrains Mono, ui-monospace, monospace" font-size="10" transform="translate(820 516)">40.1h all-time · github.com/rar-file/claude-rpc</text></g></svg>